<svg width="267" height="60" viewBox="0 0 267 60" fill="none" xmlns="http://www.w3.org/2000/svg">
<path d="M49.7834 24.0839C49.3635 10.9327 38.7071 0.319787 25.5115 0C25.1716 0 24.8917 0.259827 24.8917 0.5996L24.8717 9.43371C24.8717 9.87342 24.5318 10.2132 24.092 10.2332C10.9364 10.6329 0.319893 21.3058 0 34.497C0 34.8368 0.259913 35.1166 0.5998 35.1166L9.41686 35.1366C9.85671 35.1366 10.1966 35.4763 10.2166 35.9161C10.6365 49.0673 21.3129 59.6802 34.4885 60C34.8284 60 35.1083 59.7402 35.1083 59.4004L35.1283 50.5663C35.1283 50.1266 35.4682 49.7868 35.908 49.7668C49.0636 49.3471 59.6801 38.6742 60 25.503C60 25.1632 59.7401 24.8834 59.4002 24.8834L50.5831 24.8634C50.1433 24.8634 49.8034 24.5236 49.7834 24.0839ZM34.2486 49.7069C26.7711 49.2672 20.7731 43.1912 20.4932 35.6762C20.4732 35.3564 20.2133 35.0966 19.8934 35.0966L11.0963 35.0766C10.6365 35.0766 10.2766 34.6969 10.2966 34.2372C10.7364 26.7622 16.8144 20.7662 24.3319 20.4863C24.6518 20.4664 24.9117 20.2065 24.9117 19.8867L24.9317 11.0726C24.9317 10.6129 25.3116 10.2532 25.7714 10.2732C33.2489 10.7129 39.2469 16.7888 39.5268 24.3038C39.5468 24.6236 39.8067 24.8834 40.1266 24.8834L48.9237 24.9034C49.3835 24.9034 49.7434 25.2831 49.7234 25.7428C49.2836 33.4177 42.9057 39.5137 35.1283 39.5137L35.1083 48.9074C35.0883 49.3671 34.7084 49.7268 34.2486 49.7069Z" fill="#E60000"/>
<path fill-rule="evenodd" clip-rule="evenodd" d="M24.6309 24.6828C24.6309 23.4735 25.9274 22.7068 26.9871 23.2897L36.7734 28.6721C37.8717 29.2762 37.8717 30.8544 36.7734 31.4585L26.9871 36.841C25.9274 37.4238 24.6309 36.6571 24.6309 35.4478V24.6828Z" fill="white"/>
<path d="M67 48V12H81.28C83.7133 12 85.7067 12.4867 87.26 13.46C88.82 14.44 89.98 15.6867 90.74 17.2C91.5 18.72 91.88 20.2867 91.88 21.9C91.88 23.8867 91.4067 25.57 90.46 26.95C89.52 28.3367 88.2433 29.27 86.63 29.75V28.5C88.8967 29.02 90.6167 30.0967 91.79 31.73C92.9633 33.3633 93.55 35.22 93.55 37.3C93.55 39.4333 93.1433 41.3 92.33 42.9C91.51 44.5 90.2967 45.75 88.69 46.65C87.0833 47.55 85.0967 48 82.73 48H67ZM73.1 42.33H81.98C83.0267 42.33 83.9667 42.1167 84.8 41.69C85.6333 41.2633 86.2867 40.6633 86.76 39.89C87.24 39.1167 87.48 38.1967 87.48 37.13C87.48 36.1633 87.27 35.2967 86.85 34.53C86.4367 33.7633 85.83 33.15 85.03 32.69C84.23 32.23 83.27 32 82.15 32H73.1V42.33ZM73.1 26.38H81.2C82.0667 26.38 82.8433 26.2133 83.53 25.88C84.21 25.5467 84.75 25.0533 85.15 24.4C85.55 23.7533 85.75 22.9533 85.75 22C85.75 20.7533 85.35 19.7133 84.55 18.88C83.75 18.0467 82.6333 17.63 81.2 17.63H73.1V26.38ZM98.5 48V21H121.95V48H115.92V26.65H104.52V48H98.5ZM140.88 48.75C138.18 48.75 135.82 48.1433 133.8 46.93C131.787 45.71 130.223 44.03 129.11 41.89C128.003 39.75 127.45 37.2867 127.45 34.5C127.45 31.6667 128.017 29.1833 129.15 27.05C130.283 24.9167 131.86 23.25 133.88 22.05C135.893 20.85 138.227 20.25 140.88 20.25C143.593 20.25 145.96 20.86 147.98 22.08C149.993 23.2933 151.56 24.97 152.68 27.11C153.793 29.2567 154.35 31.72 154.35 34.5C154.35 37.3 153.787 39.77 152.66 41.91C151.54 44.0567 149.97 45.7333 147.95 46.94C145.937 48.1467 143.58 48.75 140.88 48.75ZM140.88 43.1C143.28 43.1 145.063 42.3 146.23 40.7C147.397 39.1 147.98 37.0333 147.98 34.5C147.98 31.8867 147.387 29.8 146.2 28.24C145.02 26.68 143.247 25.9 140.88 25.9C139.26 25.9 137.93 26.2633 136.89 26.99C135.85 27.7167 135.08 28.7233 134.58 30.01C134.08 31.3033 133.83 32.8 133.83 34.5C133.83 37.12 134.423 39.2067 135.61 40.76C136.803 42.32 138.56 43.1 140.88 43.1ZM166.08 48V26.35H157.05V21H181.13V26.35H172.1V48H166.08ZM197.3 48.75C194.6 48.75 192.243 48.1433 190.23 46.93C188.21 45.71 186.647 44.03 185.54 41.89C184.433 39.75 183.88 37.2867 183.88 34.5C183.88 31.6667 184.447 29.1833 185.58 27.05C186.713 24.9167 188.287 23.25 190.3 22.05C192.32 20.85 194.653 20.25 197.3 20.25C200.02 20.25 202.387 20.86 204.4 22.08C206.42 23.2933 207.987 24.97 209.1 27.11C210.22 29.2567 210.78 31.72 210.78 34.5C210.78 37.3 210.217 39.77 209.09 41.91C207.963 44.0567 206.393 45.7333 204.38 46.94C202.36 48.1467 200 48.75 197.3 48.75ZM197.3 43.1C199.7 43.1 201.483 42.3 202.65 40.7C203.817 39.1 204.4 37.0333 204.4 34.5C204.4 31.8867 203.81 29.8 202.63 28.24C201.443 26.68 199.667 25.9 197.3 25.9C195.687 25.9 194.357 26.2633 193.31 26.99C192.27 27.7167 191.5 28.7233 191 30.01C190.5 31.3033 190.25 32.8 190.25 34.5C190.25 37.12 190.847 39.2067 192.04 40.76C193.233 42.32 194.987 43.1 197.3 43.1ZM216.22 48L216.28 21H222.38V34L232.25 21H239.78L229.3 34.5L240.68 48H232.7L222.38 35V48H216.22ZM254.45 48.75C251.717 48.75 249.317 48.16 247.25 46.98C245.183 45.7933 243.57 44.15 242.41 42.05C241.257 39.95 240.68 37.5333 240.68 34.8C240.68 31.8533 241.247 29.29 242.38 27.11C243.513 24.9367 245.087 23.25 247.1 22.05C249.12 20.85 251.453 20.25 254.1 20.25C256.9 20.25 259.28 20.9033 261.24 22.21C263.2 23.5233 264.653 25.37 265.6 27.75C266.553 30.1367 266.913 32.9467 266.68 36.18H260.7V33.98C260.687 31.0467 260.17 28.9033 259.15 27.55C258.137 26.2033 256.537 25.53 254.35 25.53C251.883 25.53 250.05 26.29 248.85 27.81C247.65 29.3367 247.05 31.5667 247.05 34.5C247.05 37.2333 247.65 39.35 248.85 40.85C250.05 42.35 251.8 43.1 254.1 43.1C255.587 43.1 256.867 42.77 257.94 42.11C259.013 41.4567 259.843 40.5033 260.43 39.25L266.38 41.05C265.347 43.4833 263.75 45.3767 261.59 46.73C259.43 48.0767 257.05 48.75 254.45 48.75ZM245.15 36.18V31.63H263.73V36.18H245.15Z" fill="white"/>
</svg>
